Ferocious Planet (2011) DVDrip AC3 NL Subs DMT
.
[IMG]http://img844.imageshack.us/img844/4347/66506.jpg[/IMG]
.
Verenigde Staten
Sciencefiction / Thriller
88 minuten
.
geregisseerd door Billy O'Brien
met Joe Flanigan, John Rhys-Davies en Chris Newman
.
Een briljant fysicus maakt in opdracht van de regering een baanbrekende machine die andere universa kan ontdekken. Bij de eerste presentatie begeeft de machine het, waardoor een groepje mensen in een angstaanjagende nieuwe dimensie terecht komt. De personen zullen alles op alles moeten zetten om de mensenetende wezens in de bizarre nieuwe wereld waarin ze terecht gekomen zijn, uit te schakelen. Ondertussen werken reparateurs met man en macht aan de machine om deze te repareren.
. 
http://www.moviemeter.nl/film/66506
.
PLOT
.
A groundbreaking device is designed to glimpse alternate universes. But when the machine malfunctions and transports a group of observers into a nightmarish dimension of alien terrors, the travelers must use ingenuity to survive. 
. 
http://www.imdb.com/title/tt1637728/
.
INFO
.
Source: Retail
Format                           : MPEG-4 Visual
Format profile                   : Advanced Simple@L5
Format settings, BVOP            : 1
Format settings, QPel            : No
Format settings, GMC             : No warppoints
Format settings, Matrix          : Default (H.263)
Muxing mode                      : Packed bitstream
Codec ID                         : DX50
Codec ID/Hint                    : DivX 5
Duration                         : 1h 24mn
Bit rate                         : 1 855 Kbps
Width                            : 720 pixels
Height                           : 406 pixels
Display aspect ratio             : 16:9
Frame rate                       : 25.000 fps
Color space                      : YUV
Chroma subsampling               : 4:2:0
Bit depth                        : 8 bits
Scan type                        : Progressive
Compression mode                 : Lossy
Bits/(Pixel*Frame)               : 0.254
Stream size                      : 1.10 GiB (80%)
Writing library                  : XviD 1.2.1 (UTC 2008-12-04)

Audio
ID                               : 1
Format                           : AC-3
Format/Info                      : Audio Coding 3
Mode extension                   : CM (complete main)
Codec ID                         : 2000
Duration                         : 1h 24mn
Bit rate mode                    : Constant
Bit rate                         : 448 Kbps
Channel(s)                       : 6 channels
Channel positions                : Front: L C R, Side: L R, LFE
Sampling rate                    : 48.0 KHz
Bit depth                        : 16 bits
Compression mode                 : Lossy
Stream size                      : 271 MiB (19%)
Alignment                        : Aligned on interleaves
Interleave, duration             : 32 ms (0.80 video frame)
Interleave, preload duration     : 32 ms
.
Subs: Dutch (SRT-File)
.
Enjoy
.
Deze film wordt u aangeboden door:

DUTCH MOVIE THEATER

[IMG]http://img220.imageshack.us/img220/2386/dmta.png[/IMG
